<svg width="182" height="137" viewBox="0 0 182 137" fill="none" xmlns="http://www.w3.org/2000/svg">
<circle cx="60.5" cy="113.5" r="23.5" fill="#0E0E0E"/>
<circle cx="119.5" cy="113.5" r="23.5" fill="#0E0E0E"/>
<path d="M116.191 61.0668L101.467 45.5393L106.594 40.6778L121.318 56.2053L136.698 41.6208L141.606 46.7966L126.226 61.3811L140.95 76.9086L135.824 81.7701L121.099 66.2426L105.719 80.8271L100.811 75.6513L116.191 61.0668Z" fill="#0E0E0E"/>
<path d="M55.2168 60.1995L40.13 45.0241L45.1404 40.0429L60.2272 55.2183L75.2587 40.2746L80.2876 45.3331L65.2562 60.2768L80.343 75.4521L75.3325 80.4334L60.2457 65.258L45.2143 80.2017L40.1853 75.1432L55.2168 60.1995Z" fill="#0E0E0E"/>
</svg>
